<svg width="185" height="27" viewBox="0 0 185 27" fill="none" xmlns="http://www.w3.org/2000/svg">
<path d="M0.52 0.939999H16.41V5.42H5.245V11.51H15.29V15.99H5.245V26H0.52V0.939999ZM26.537 8.29C27.867 8.29 29.0804 8.52333 30.177 8.99C31.297 9.43333 32.2537 10.0633 33.047 10.88C33.8637 11.6733 34.4937 12.63 34.937 13.75C35.4037 14.87 35.637 16.095 35.637 17.425C35.637 18.755 35.4037 19.98 34.937 21.1C34.4937 22.22 33.8637 23.1883 33.047 24.005C32.2537 24.7983 31.297 25.4283 30.177 25.895C29.0804 26.3383 27.867 26.56 26.537 26.56C25.207 26.56 23.982 26.3383 22.862 25.895C21.7654 25.4283 20.8087 24.7983 19.992 24.005C19.1987 23.1883 18.5687 22.22 18.102 21.1C17.6587 19.98 17.437 18.755 17.437 17.425C17.437 16.095 17.6587 14.87 18.102 13.75C18.5687 12.63 19.1987 11.6733 19.992 10.88C20.8087 10.0633 21.7654 9.43333 22.862 8.99C23.982 8.52333 25.207 8.29 26.537 8.29ZM26.537 22.325C27.1204 22.325 27.6804 22.22 28.217 22.01C28.777 21.7767 29.267 21.45 29.687 21.03C30.107 20.61 30.4337 20.0967 30.667 19.49C30.9237 18.8833 31.052 18.195 31.052 17.425C31.052 16.655 30.9237 15.9667 30.667 15.36C30.4337 14.7533 30.107 14.24 29.687 13.82C29.267 13.4 28.777 13.085 28.217 12.875C27.6804 12.6417 27.1204 12.525 26.537 12.525C25.9304 12.525 25.3587 12.6417 24.822 12.875C24.2854 13.085 23.807 13.4 23.387 13.82C22.967 14.24 22.6287 14.7533 22.372 15.36C22.1387 15.9667 22.022 16.655 22.022 17.425C22.022 18.195 22.1387 18.8833 22.372 19.49C22.6287 20.0967 22.967 20.61 23.387 21.03C23.807 21.45 24.2854 21.7767 24.822 22.01C25.3587 22.22 25.9304 22.325 26.537 22.325ZM46.703 8.29C48.033 8.29 49.2464 8.52333 50.343 8.99C51.463 9.43333 52.4197 10.0633 53.213 10.88C54.0297 11.6733 54.6597 12.63 55.103 13.75C55.5697 14.87 55.803 16.095 55.803 17.425C55.803 18.755 55.5697 19.98 55.103 21.1C54.6597 22.22 54.0297 23.1883 53.213 24.005C52.4197 24.7983 51.463 25.4283 50.343 25.895C49.2464 26.3383 48.033 26.56 46.703 26.56C45.373 26.56 44.148 26.3383 43.028 25.895C41.9314 25.4283 40.9747 24.7983 40.158 24.005C39.3647 23.1883 38.7347 22.22 38.268 21.1C37.8247 19.98 37.603 18.755 37.603 17.425C37.603 16.095 37.8247 14.87 38.268 13.75C38.7347 12.63 39.3647 11.6733 40.158 10.88C40.9747 10.0633 41.9314 9.43333 43.028 8.99C44.148 8.52333 45.373 8.29 46.703 8.29ZM46.703 22.325C47.2864 22.325 47.8464 22.22 48.383 22.01C48.943 21.7767 49.433 21.45 49.853 21.03C50.273 20.61 50.5997 20.0967 50.833 19.49C51.0897 18.8833 51.218 18.195 51.218 17.425C51.218 16.655 51.0897 15.9667 50.833 15.36C50.5997 14.7533 50.273 14.24 49.853 13.82C49.433 13.4 48.943 13.085 48.383 12.875C47.8464 12.6417 47.2864 12.525 46.703 12.525C46.0964 12.525 45.5247 12.6417 44.988 12.875C44.4514 13.085 43.973 13.4 43.553 13.82C43.133 14.24 42.7947 14.7533 42.538 15.36C42.3047 15.9667 42.188 16.655 42.188 17.425C42.188 18.195 42.3047 18.8833 42.538 19.49C42.7947 20.0967 43.133 20.61 43.553 21.03C43.973 21.45 44.4514 21.7767 44.988 22.01C45.5247 22.22 46.0964 22.325 46.703 22.325ZM71.5241 23.935H71.2441C70.8241 24.6583 70.1707 25.2767 69.2841 25.79C68.3974 26.3033 67.3007 26.56 65.9941 26.56C64.8974 26.56 63.8474 26.3383 62.8441 25.895C61.8641 25.4283 60.9891 24.7983 60.2191 24.005C59.4724 23.1883 58.8774 22.22 58.4341 21.1C57.9907 19.98 57.7691 18.755 57.7691 17.425C57.7691 16.095 57.9907 14.87 58.4341 13.75C58.8774 12.63 59.4724 11.6733 60.2191 10.88C60.9891 10.0633 61.8641 9.43333 62.8441 8.99C63.8474 8.52333 64.8974 8.29 65.9941 8.29C67.3007 8.29 68.3974 8.54667 69.2841 9.06C70.1707 9.57333 70.8241 10.1917 71.2441 10.915H71.5241L71.2441 8.465V0.939999H75.8291V26H71.5241V23.935ZM66.9391 22.325C67.5457 22.325 68.1174 22.22 68.6541 22.01C69.2141 21.7767 69.7041 21.45 70.1241 21.03C70.5441 20.61 70.8824 20.0967 71.1391 19.49C71.3957 18.8833 71.5241 18.195 71.5241 17.425C71.5241 16.655 71.3957 15.9667 71.1391 15.36C70.8824 14.7533 70.5441 14.24 70.1241 13.82C69.7041 13.4 69.2141 13.085 68.6541 12.875C68.1174 12.6417 67.5457 12.525 66.9391 12.525C66.3324 12.525 65.7491 12.6417 65.1891 12.875C64.6524 13.1083 64.1741 13.435 63.7541 13.855C63.3341 14.275 62.9957 14.7883 62.7391 15.395C62.4824 16.0017 62.3541 16.6783 62.3541 17.425C62.3541 18.1717 62.4824 18.8483 62.7391 19.455C62.9957 20.0617 63.3341 20.575 63.7541 20.995C64.1741 21.415 64.6524 21.7417 65.1891 21.975C65.7491 22.2083 66.3324 22.325 66.9391 22.325Z" fill="black"/>
<path d="M80.2954 0.939999H85.0204V21.52H95.6254V26H80.2954V0.939999ZM106.552 8.29C107.882 8.29 109.095 8.52333 110.192 8.99C111.312 9.43333 112.268 10.0633 113.062 10.88C113.878 11.6733 114.508 12.63 114.952 13.75C115.418 14.87 115.652 16.095 115.652 17.425C115.652 18.755 115.418 19.98 114.952 21.1C114.508 22.22 113.878 23.1883 113.062 24.005C112.268 24.7983 111.312 25.4283 110.192 25.895C109.095 26.3383 107.882 26.56 106.552 26.56C105.222 26.56 103.997 26.3383 102.877 25.895C101.78 25.4283 100.823 24.7983 100.007 24.005C99.2133 23.1883 98.5833 22.22 98.1167 21.1C97.6733 19.98 97.4517 18.755 97.4517 17.425C97.4517 16.095 97.6733 14.87 98.1167 13.75C98.5833 12.63 99.2133 11.6733 100.007 10.88C100.823 10.0633 101.78 9.43333 102.877 8.99C103.997 8.52333 105.222 8.29 106.552 8.29ZM106.552 22.325C107.135 22.325 107.695 22.22 108.232 22.01C108.792 21.7767 109.282 21.45 109.702 21.03C110.122 20.61 110.448 20.0967 110.682 19.49C110.938 18.8833 111.067 18.195 111.067 17.425C111.067 16.655 110.938 15.9667 110.682 15.36C110.448 14.7533 110.122 14.24 109.702 13.82C109.282 13.4 108.792 13.085 108.232 12.875C107.695 12.6417 107.135 12.525 106.552 12.525C105.945 12.525 105.373 12.6417 104.837 12.875C104.3 13.085 103.822 13.4 103.402 13.82C102.982 14.24 102.643 14.7533 102.387 15.36C102.153 15.9667 102.037 16.655 102.037 17.425C102.037 18.195 102.153 18.8833 102.387 19.49C102.643 20.0967 102.982 20.61 103.402 21.03C103.822 21.45 104.3 21.7767 104.837 22.01C105.373 22.22 105.945 22.325 106.552 22.325ZM116.436 8.85H121.651L125.921 19.77H126.166L130.471 8.85H135.651L128.266 26H123.751L116.436 8.85ZM153.466 21.87C152.672 23.27 151.599 24.4017 150.246 25.265C148.916 26.1283 147.282 26.56 145.346 26.56C144.039 26.56 142.826 26.3383 141.706 25.895C140.609 25.4283 139.652 24.7867 138.836 23.97C138.019 23.1533 137.377 22.1967 136.911 21.1C136.467 19.98 136.246 18.755 136.246 17.425C136.246 16.1883 136.467 15.0217 136.911 13.925C137.354 12.805 137.972 11.8367 138.766 11.02C139.559 10.18 140.492 9.515 141.566 9.025C142.662 8.535 143.864 8.29 145.171 8.29C146.547 8.29 147.772 8.52333 148.846 8.99C149.919 9.43333 150.817 10.0633 151.541 10.88C152.264 11.6733 152.812 12.6183 153.186 13.715C153.559 14.8117 153.746 16.0017 153.746 17.285C153.746 17.4483 153.746 17.5883 153.746 17.705C153.722 17.845 153.711 17.9733 153.711 18.09C153.687 18.2067 153.676 18.335 153.676 18.475H140.761C140.854 19.175 141.041 19.7817 141.321 20.295C141.624 20.785 141.986 21.205 142.406 21.555C142.849 21.8817 143.327 22.1267 143.841 22.29C144.354 22.43 144.879 22.5 145.416 22.5C146.466 22.5 147.329 22.2667 148.006 21.8C148.706 21.31 149.254 20.7033 149.651 19.98L153.466 21.87ZM149.301 15.22C149.277 14.9167 149.172 14.5783 148.986 14.205C148.822 13.8317 148.566 13.4817 148.216 13.155C147.889 12.8283 147.469 12.56 146.956 12.35C146.466 12.14 145.871 12.035 145.171 12.035C144.191 12.035 143.327 12.315 142.581 12.875C141.834 13.435 141.309 14.2167 141.006 15.22H149.301ZM156.674 8.85H160.979V11.23H161.259C161.469 10.81 161.749 10.425 162.099 10.075C162.449 9.725 162.834 9.42167 163.254 9.165C163.697 8.90833 164.164 8.71 164.654 8.57C165.167 8.43 165.669 8.36 166.159 8.36C166.766 8.36 167.279 8.41833 167.699 8.535C168.142 8.65167 168.516 8.80333 168.819 8.99L167.594 13.155C167.314 13.015 166.999 12.91 166.649 12.84C166.322 12.7467 165.914 12.7 165.424 12.7C164.794 12.7 164.222 12.8283 163.709 13.085C163.196 13.3183 162.752 13.6567 162.379 14.1C162.029 14.5433 161.749 15.0683 161.539 15.675C161.352 16.2583 161.259 16.9 161.259 17.6V26H156.674V8.85ZM177.033 26.56C175.913 26.56 174.91 26.42 174.023 26.14C173.16 25.86 172.402 25.4983 171.748 25.055C171.118 24.5883 170.582 24.0633 170.138 23.48C169.695 22.8733 169.357 22.2667 169.123 21.66L173.218 19.91C173.615 20.7967 174.14 21.4617 174.793 21.905C175.47 22.325 176.217 22.535 177.033 22.535C177.873 22.535 178.538 22.3833 179.028 22.08C179.518 21.7767 179.763 21.415 179.763 20.995C179.763 20.5283 179.553 20.155 179.133 19.875C178.737 19.5717 178.037 19.3033 177.033 19.07L174.618 18.545C174.082 18.4283 173.522 18.2417 172.938 17.985C172.378 17.7283 171.865 17.4017 171.398 17.005C170.932 16.6083 170.547 16.13 170.243 15.57C169.94 15.01 169.788 14.3567 169.788 13.61C169.788 12.77 169.963 12.0233 170.313 11.37C170.687 10.7167 171.188 10.1683 171.818 9.725C172.448 9.25833 173.183 8.90833 174.023 8.675C174.887 8.41833 175.808 8.29 176.788 8.29C178.422 8.29 179.88 8.61667 181.163 9.27C182.447 9.9 183.392 10.915 183.998 12.315L180.043 13.925C179.717 13.2483 179.238 12.7583 178.608 12.455C177.978 12.1517 177.348 12 176.718 12C176.065 12 175.493 12.14 175.003 12.42C174.513 12.6767 174.268 13.015 174.268 13.435C174.268 13.8317 174.467 14.1467 174.863 14.38C175.283 14.6133 175.843 14.8233 176.543 15.01L179.168 15.64C180.918 16.06 182.213 16.7367 183.053 17.67C183.917 18.58 184.348 19.665 184.348 20.925C184.348 21.6717 184.173 22.3833 183.823 23.06C183.473 23.7367 182.972 24.3433 182.318 24.88C181.688 25.3933 180.918 25.8017 180.008 26.105C179.122 26.4083 178.13 26.56 177.033 26.56Z" fill="#2563EB"/>
</svg>
